<!DOCTYPE svg PUBLIC "-//W3C//DTD SVG 20010904//EN" "http://www.w3.org/TR/2001/REC-SVG-20010904/DTD/svg10.dtd">
<svg version="1.0" xmlns="http://www.w3.org/2000/svg" viewBox="0 0 900 900"  opacity=".5" preserveAspectRatio="xMidYMid meet">
<g stroke="none"
  fill="#000000"
  id="layer101">
  <path
    id="path2"
    d="M 360.46 126.46 C 418.94 126.45 476.54 126.20 535.00 125.95 C 535.98 125.85 536.85 125.99 537.60 126.38 C 538.25 129.72 539.43 133.16 539.46 136.56 C 541.22 138.45 540.10 140.49 541.54 142.44 C 541.63 143.97 541.39 145.22 542.54 146.45 C 542.12 149.57 543.86 151.06 543.69 154.00 C 545.19 155.88 544.22 157.82 545.07 160.00 C 546.38 164.26 547.59 170.02 548.46 174.54 C 550.41 176.29 551.00 178.94 553.56 180.45 C 556.79 182.21 561.70 184.92 565.00 186.10 C 567.25 186.39 569.31 188.45 571.54 188.46 L 572.44 189.54 C 575.77 190.49 578.84 192.35 582.00 193.72 C 587.17 195.43 592.90 198.79 597.94 201.24 C 601.40 203.21 604.99 204.27 608.00 206.71 C 611.66 208.50 614.36 209.91 617.46 212.54 C 622.52 214.52 625.92 218.29 630.55 220.46 C 631.37 221.65 632.13 222.09 633.54 222.46 C 634.47 223.81 636.03 224.87 637.54 225.46 C 638.53 226.75 639.99 227.96 641.54 228.46 C 642.59 230.06 644.73 231.85 646.54 232.46 C 648.12 234.31 649.73 235.85 651.59 237.43 C 663.48 247.93 674.37 259.22 684.97 271.00 C 685.90 272.58 687.37 273.17 688.54 274.46 C 689.06 276.24 690.83 277.53 691.87 279.06 C 699.91 288.46 703.60 293.54 710.76 303.00 C 711.54 305.15 713.56 305.65 714.05 307.95 C 716.10 310.57 717.44 314.14 719.54 316.45 C 721.10 320.48 722.51 322.13 724.54 325.45 C 725.80 328.34 727.85 331.93 729.15 334.95 C 730.22 336.39 729.60 338.42 731.54 339.46 C 731.61 341.54 732.37 343.71 733.54 345.44 C 735.00 351.26 738.56 358.46 739.67 364.00 C 741.32 366.37 740.46 369.89 742.54 372.44 C 742.54 373.64 742.88 374.65 743.54 375.45 C 743.80 377.76 744.08 380.54 745.54 382.45 C 745.96 385.04 745.96 388.28 747.54 390.44 C 747.42 393.02 748.93 394.41 748.71 397.00 C 750.46 399.11 748.73 401.35 750.54 403.44 C 750.54 404.64 750.60 405.82 750.69 407.00 C 752.37 409.17 751.08 411.46 751.88 414.00 C 753.40 416.79 751.86 420.45 753.54 423.44 C 753.60 427.09 753.57 431.55 754.57 435.00 C 754.59 442.67 754.59 450.33 754.58 458.00 C 754.41 459.13 754.22 460.58 753.46 461.46 C 753.40 466.32 753.50 471.15 753.05 476.00 C 751.57 479.38 753.11 484.05 751.46 487.44 C 751.45 489.97 751.27 492.48 751.12 495.00 C 749.82 497.25 750.66 500.41 750.42 503.00 C 751.65 506.46 751.23 510.55 753.27 514.00 C 753.75 515.15 754.86 515.43 755.18 516.91 C 760.90 523.59 767.82 529.72 774.17 535.81 C 775.89 536.48 777.37 538.10 778.30 539.68 C 781.72 542.98 785.17 546.13 788.70 549.30 C 789.53 550.65 787.98 551.72 787.71 553.00 C 786.62 554.91 786.45 556.14 784.46 557.46 C 783.17 561.47 780.76 562.61 779.54 566.55 C 777.97 567.65 778.08 569.50 776.46 570.46 C 774.99 574.41 772.73 575.85 771.54 579.54 C 769.84 581.00 768.60 583.51 767.46 585.44 C 766.37 588.26 764.44 589.18 763.54 592.54 C 761.45 594.81 759.59 597.65 758.54 600.55 C 756.63 602.08 756.24 605.10 754.54 606.56 C 752.41 610.20 751.33 610.82 749.54 615.54 C 747.35 617.18 746.68 619.16 745.54 621.55 C 743.40 622.85 743.36 626.18 741.46 627.45 C 740.79 628.69 740.77 629.68 739.46 630.45 C 737.97 634.14 735.82 636.57 733.81 639.95 C 732.79 641.17 732.97 642.62 731.46 643.46 C 729.87 647.24 727.88 649.47 725.81 652.95 C 724.78 654.17 724.97 655.62 723.46 656.46 C 722.03 659.81 720.74 661.07 719.02 664.00 C 718.66 666.12 715.66 667.79 715.54 670.54 C 713.53 672.32 712.50 675.76 710.46 677.45 C 709.02 680.77 707.66 682.61 705.46 685.46 C 703.85 689.36 701.94 691.31 700.04 695.04 C 698.47 696.97 697.00 695.39 695.00 695.58 C 692.96 695.01 690.56 693.80 688.45 693.54 C 687.51 691.73 684.61 692.34 682.94 691.27 C 679.79 690.49 677.83 688.69 674.45 688.54 C 673.67 687.85 672.67 687.51 671.45 687.54 C 670.70 686.82 669.70 686.49 668.45 686.54 C 667.52 684.76 666.02 685.75 664.56 684.46 C 662.26 684.34 660.32 683.11 658.00 682.92 C 655.88 682.37 654.30 683.07 652.54 681.46 C 649.52 681.40 646.48 681.40 643.46 681.46 C 641.92 682.60 639.77 683.26 638.05 684.13 C 630.01 688.96 624.20 695.01 615.96 699.96 C 614.09 702.31 610.61 703.39 608.54 705.54 C 605.12 706.49 604.42 708.12 601.55 709.54 C 593.03 713.15 584.24 719.21 575.45 721.46 C 573.65 724.31 569.14 723.05 567.55 725.54 C 561.89 726.41 556.09 729.37 550.44 730.46 C 548.98 731.70 547.48 730.74 546.55 732.54 C 545.06 732.57 543.80 732.55 542.56 733.54 C 537.06 734.90 531.50 736.26 525.94 737.74 C 524.29 739.13 522.32 738.26 520.57 739.54 C 518.07 739.48 516.52 740.87 514.00 740.80 C 512.13 742.21 510.34 740.95 508.55 742.54 C 505.54 742.17 503.88 743.88 501.00 743.68 C 499.10 745.21 497.22 744.23 495.00 744.82 C 492.59 746.37 489.18 744.96 486.56 746.54 C 484.71 746.71 482.07 746.34 480.55 747.54 C 478.03 747.62 475.51 747.52 473.00 747.78 C 470.84 749.24 467.62 748.32 465.00 748.58 C 452.55 748.89 440.57 749.34 428.00 748.26 C 425.35 746.52 421.13 747.91 418.00 747.32 C 415.25 745.21 410.57 747.58 407.55 745.46 C 403.09 745.65 398.90 744.34 394.45 744.54 C 393.02 743.07 391.28 743.77 389.45 743.54 C 388.22 742.28 386.99 742.67 385.44 742.54 C 384.21 741.47 382.95 741.60 381.44 741.54 C 380.21 740.55 378.93 740.59 377.44 740.54 C 375.63 738.99 373.82 740.23 372.00 738.70 C 369.36 738.49 366.69 736.77 364.00 736.58 C 361.06 735.49 357.66 733.79 354.45 733.54 C 353.30 731.50 349.83 732.24 348.00 730.75 C 345.92 730.68 344.20 729.00 342.00 728.68 C 338.48 727.75 335.88 725.64 332.45 725.54 C 331.44 723.72 329.54 724.25 327.93 723.25 C 326.11 721.91 323.88 722.01 322.00 720.76 C 314.77 717.72 308.89 714.82 301.95 711.17 C 299.20 710.13 294.89 706.65 291.45 705.54 C 290.33 703.69 287.38 703.58 286.00 702.00 C 284.60 700.45 281.75 700.17 280.44 698.54 C 275.55 695.57 269.61 691.55 265.00 688.05 C 261.32 686.11 258.13 681.41 254.46 679.54 C 253.08 677.28 249.34 677.25 247.54 675.46 C 245.20 675.40 242.81 675.40 240.46 675.46 C 239.06 677.23 237.64 675.47 236.56 677.54 C 234.44 677.81 232.05 679.01 230.00 679.58 C 226.55 680.08 224.55 681.65 221.00 682.63 C 214.01 684.81 209.13 686.99 202.06 689.22 C 200.48 690.17 197.48 689.68 196.55 691.54 C 195.02 691.42 192.65 692.81 191.76 691.09 C 189.81 689.06 189.60 686.51 187.46 684.55 C 186.85 682.54 185.09 681.36 184.34 679.00 C 183.57 676.32 181.66 675.18 180.88 673.05 C 179.51 671.45 179.25 668.70 177.46 667.55 C 177.09 666.01 176.13 664.88 175.54 663.45 C 173.61 662.18 173.68 658.85 171.46 657.54 C 170.71 655.56 169.41 653.44 168.54 651.45 C 166.58 650.17 166.63 646.86 164.46 645.55 C 163.99 643.22 162.14 641.76 161.54 639.45 C 159.54 638.18 159.59 634.84 157.46 633.55 C 156.76 630.57 154.77 629.29 153.86 627.05 C 152.51 625.44 152.24 622.71 150.46 621.55 C 149.78 619.87 148.99 617.60 147.46 616.55 C 146.67 614.06 145.09 611.59 143.46 609.55 C 142.17 605.91 140.43 604.75 138.79 601.00 C 136.03 597.74 135.40 594.23 131.96 590.04 C 130.41 588.02 129.65 584.08 127.46 582.54 C 126.74 580.57 125.40 578.43 124.54 576.45 C 122.63 575.16 122.43 572.03 120.46 570.54 C 119.63 567.41 115.86 562.57 114.42 560.00 C 113.10 557.76 111.67 554.88 110.54 552.46 C 109.45 551.74 108.26 549.77 108.46 548.46 C 109.98 547.85 110.97 546.28 112.18 545.16 C 118.15 538.79 124.41 532.74 131.05 527.06 C 132.22 525.84 133.76 524.96 134.46 523.46 C 137.19 522.25 139.18 519.34 141.55 517.54 C 143.24 515.91 145.18 514.53 146.58 512.62 C 147.40 511.39 147.11 510.33 148.54 509.54 C 148.60 507.19 148.60 504.80 148.54 502.45 C 147.15 500.30 148.19 497.38 146.98 495.00 C 146.42 488.49 146.64 481.98 146.54 475.46 C 145.98 474.81 145.72 473.99 145.78 473.00 C 145.56 464.99 145.52 457.01 145.79 449.00 C 145.73 448.03 145.98 447.21 146.54 446.54 C 146.80 439.74 146.02 431.53 147.58 425.00 C 147.46 420.74 148.62 416.70 148.46 412.44 C 149.83 410.72 149.27 408.47 149.46 406.45 C 150.86 404.89 150.27 403.31 150.46 401.45 C 151.79 399.91 151.29 398.28 151.46 396.45 C 153.39 395.42 152.18 393.88 152.99 392.00 C 153.42 387.19 156.20 381.28 156.46 376.45 C 157.95 375.04 156.82 373.10 157.92 371.95 C 159.07 367.93 160.47 363.94 161.80 359.95 C 163.52 357.09 163.76 353.34 165.54 350.57 C 165.95 348.42 167.31 346.54 167.46 344.45 C 169.48 343.19 169.20 339.88 170.82 337.95 C 172.16 334.86 174.24 331.43 175.46 328.45 C 176.87 327.60 177.30 326.02 177.46 324.46 C 179.97 321.88 183.03 315.71 185.40 312.00 C 185.37 310.77 187.49 310.12 187.77 309.00 C 192.20 302.37 196.42 295.46 201.00 289.09 C 204.61 284.75 208.00 280.17 211.84 275.90 C 212.36 274.65 212.78 273.82 214.00 273.09 C 218.57 268.31 223.29 262.36 227.83 257.85 C 236.65 248.61 246.41 240.26 256.64 232.62 C 257.69 230.65 260.35 230.80 261.46 228.46 C 263.85 227.31 266.85 225.64 268.46 223.46 C 270.47 223.07 270.96 221.34 272.92 220.80 C 274.85 219.18 277.03 218.68 278.46 216.46 C 279.73 216.12 280.59 215.41 281.46 214.46 C 282.73 214.08 283.58 213.42 284.46 212.46 C 285.74 212.05 286.56 211.45 287.45 210.46 C 289.80 209.90 290.19 208.19 292.55 207.54 C 295.10 206.69 295.44 204.57 297.95 203.93 C 300.87 202.05 304.35 200.42 307.00 198.27 C 310.18 197.13 311.09 195.49 314.00 194.23 C 318.76 192.06 320.87 189.22 326.55 188.54 C 327.04 187.64 327.86 187.22 329.00 187.27 C 331.07 185.95 334.91 185.80 336.45 183.46 C 338.43 182.81 340.71 181.66 341.96 179.96 C 346.55 177.82 350.93 172.74 352.73 168.00 C 353.53 166.25 353.03 164.57 354.31 163.07 C 355.07 160.36 355.51 157.28 355.46 154.44 C 357.40 152.03 355.45 149.43 357.23 147.00 C 357.39 145.83 357.46 144.64 357.46 143.44 C 359.23 140.93 357.59 138.43 359.16 136.00 C 359.14 132.41 360.22 129.93 360.46 126.46 Z" />
  <path
    id="path4"
    fill="#ffffff"
    d="M 444.44 212.46 C 447.93 212.05 451.50 212.00 455.00 212.40 C 458.44 213.35 461.53 215.46 462.70 219.00 C 464.38 221.02 462.98 223.49 464.54 225.46 C 464.57 229.98 464.61 234.48 464.76 239.00 C 466.60 241.51 464.71 245.39 466.04 247.85 C 468.45 248.87 471.61 247.84 474.00 248.97 C 476.93 249.44 480.26 248.97 483.00 249.98 C 485.79 251.24 489.58 250.07 492.44 251.54 C 494.66 251.70 497.43 251.49 499.44 252.54 C 501.29 252.73 503.95 252.27 505.45 253.54 C 506.96 253.61 508.21 253.42 509.45 254.54 C 512.52 254.32 515.94 256.87 519.00 256.70 C 520.77 258.11 522.58 257.21 524.44 258.54 C 527.27 258.69 529.79 260.33 532.55 260.46 C 533.05 261.37 533.86 261.79 535.00 261.72 C 540.53 264.20 547.14 265.94 552.13 268.71 C 554.08 270.15 556.91 270.68 558.46 272.54 C 560.00 272.71 561.61 273.14 562.45 274.54 C 564.29 275.01 566.15 276.17 567.46 277.54 C 569.76 278.17 571.83 279.83 573.46 281.54 C 574.83 281.54 575.54 282.71 576.46 283.54 C 578.19 283.63 578.86 284.96 580.54 285.46 C 581.85 287.51 583.74 288.03 585.56 289.46 C 586.57 290.76 587.34 291.64 588.94 292.14 C 591.54 294.17 594.12 296.25 596.61 298.40 C 597.95 300.82 600.26 300.92 601.95 303.05 C 607.46 307.69 612.71 313.10 617.54 318.45 C 618.58 319.89 619.81 320.88 620.46 322.54 C 621.77 323.52 623.02 324.95 623.46 326.54 C 624.83 327.32 626.01 329.06 626.46 330.54 C 627.88 331.39 628.85 333.05 629.46 334.54 C 630.39 335.41 631.18 336.25 631.46 337.54 C 633.97 339.26 635.18 342.64 637.09 344.95 C 638.54 346.51 638.80 349.28 640.54 350.45 C 643.44 355.86 647.08 362.25 649.98 368.00 C 650.45 370.23 652.44 372.26 652.46 374.54 C 654.29 375.56 653.79 377.53 654.78 379.07 C 657.29 386.64 661.44 394.52 662.46 402.55 C 664.44 403.58 662.91 405.04 664.54 406.46 C 664.42 407.79 664.75 408.79 665.54 409.46 C 665.78 411.23 665.01 413.15 666.54 414.46 C 666.66 416.60 666.33 419.56 667.54 421.44 C 667.69 424.00 667.57 427.06 668.54 429.44 C 668.79 432.83 668.54 436.87 669.58 440.00 C 669.60 454.49 670.76 469.63 669.04 484.00 C 667.57 486.65 669.40 489.21 667.46 491.45 C 667.36 493.62 667.61 496.48 666.46 498.44 C 665.21 506.03 662.65 513.11 660.46 520.41 C 657.24 528.24 654.05 535.88 650.54 543.54 C 649.75 545.56 647.18 547.55 647.46 549.54 C 648.70 550.17 649.69 550.25 650.45 551.54 C 655.35 553.44 659.38 556.77 664.00 559.07 C 666.81 559.33 667.15 562.39 669.81 563.16 C 670.17 564.16 670.76 564.90 671.58 565.38 C 674.10 568.06 674.73 572.45 674.19 576.00 C 672.81 579.39 671.93 583.43 669.02 586.00 C 666.30 589.46 660.44 590.41 656.56 588.46 C 654.25 588.23 650.98 587.39 649.55 585.46 C 644.78 583.35 638.57 579.88 633.45 577.54 C 632.43 575.59 629.88 576.00 629.29 578.00 C 628.86 579.70 626.78 580.49 626.33 582.00 C 624.93 584.71 622.38 587.17 620.59 589.61 C 619.06 590.77 617.48 592.04 616.83 593.88 C 612.75 598.40 608.21 602.63 603.59 606.58 C 602.03 607.62 601.18 608.92 599.46 609.46 C 597.56 611.95 594.25 614.06 591.46 615.46 C 590.61 616.66 589.89 617.08 588.46 617.46 C 587.63 618.65 586.88 619.12 585.46 619.46 C 584.65 620.69 583.83 621.04 582.46 621.46 C 581.34 623.03 579.57 623.00 578.44 624.45 C 575.76 625.75 574.74 627.49 571.46 628.46 C 569.26 630.52 566.22 631.80 563.86 633.72 C 562.46 634.99 560.51 634.94 559.55 636.54 C 553.54 639.27 544.14 645.71 537.45 647.46 C 534.18 649.65 530.51 650.24 527.00 652.04 C 525.24 652.28 524.28 653.50 522.45 653.46 C 521.55 655.09 520.49 654.39 519.07 655.25 C 517.39 656.40 514.51 655.71 513.55 657.54 C 507.36 658.15 503.96 661.46 497.44 661.46 C 495.85 662.80 494.31 662.30 492.44 662.46 C 490.90 663.79 489.27 663.28 487.43 663.46 C 484.61 665.16 481.64 663.69 479.00 665.03 C 476.14 665.37 473.29 665.42 470.42 665.46 C 468.50 666.27 466.06 665.88 464.00 666.11 C 451.10 666.64 438.32 665.58 425.45 665.54 C 422.57 663.72 417.80 664.97 414.45 664.54 C 412.19 662.87 408.16 663.89 405.44 663.54 C 403.32 662.15 399.92 662.78 397.46 662.54 C 396.22 661.36 394.04 661.68 392.46 661.54 C 390.74 660.15 388.74 661.20 387.05 659.75 C 376.03 656.86 365.11 653.11 355.00 647.27 C 353.39 646.29 351.78 645.99 350.54 644.46 C 349.00 644.29 347.39 643.85 346.55 642.46 C 341.60 640.51 335.99 636.12 330.46 633.54 C 329.53 632.13 327.47 631.54 326.00 630.73 C 324.85 630.49 324.26 628.41 323.00 628.37 C 319.16 626.38 316.00 623.95 312.40 621.57 C 311.47 619.75 309.54 620.37 308.55 618.46 C 304.36 616.36 300.79 612.81 296.95 610.11 C 287.68 602.74 279.43 594.29 272.18 584.94 C 271.75 583.10 270.36 583.03 269.56 581.43 C 268.54 580.45 267.66 577.80 266.00 578.18 C 263.00 579.67 260.04 581.34 257.00 582.69 C 253.13 583.61 249.75 586.51 246.00 587.34 C 241.50 589.01 236.08 589.34 232.61 585.40 C 228.76 580.82 225.30 575.27 225.70 569.00 C 226.24 565.93 228.54 562.63 231.54 561.54 C 232.92 559.40 235.11 559.93 236.45 557.46 C 240.00 555.83 243.61 552.89 247.55 551.54 C 248.32 550.18 249.34 550.30 250.55 549.54 C 251.09 546.41 247.57 543.64 247.54 540.46 C 245.48 539.23 246.19 537.01 244.71 535.00 C 242.53 529.28 239.38 521.48 238.54 515.45 C 237.45 514.22 237.61 512.95 237.54 511.45 C 236.38 510.22 236.63 508.97 236.54 507.45 C 235.00 505.69 236.15 503.91 234.88 502.00 C 234.36 496.44 232.29 491.16 232.54 485.45 C 231.33 483.95 231.63 481.81 231.58 480.00 C 228.80 469.12 230.45 455.22 230.42 444.00 C 231.68 439.64 231.27 434.07 231.46 429.46 C 233.40 428.41 232.25 426.84 232.63 425.00 C 233.06 421.16 233.57 416.67 234.58 413.00 C 234.61 411.55 234.61 409.75 235.54 408.56 C 235.18 405.50 236.84 403.90 236.71 401.00 C 238.26 399.16 236.93 397.37 238.54 395.56 C 238.71 393.20 239.13 390.52 240.54 388.55 C 241.17 384.45 243.61 380.57 244.46 376.44 C 246.31 375.46 245.13 374.01 246.54 372.56 C 247.31 368.84 249.65 365.48 251.23 362.06 C 252.89 359.20 253.70 356.43 255.72 354.00 C 257.61 349.77 260.80 345.91 263.25 342.00 C 264.20 339.98 266.68 339.47 267.07 337.00 C 269.17 335.07 270.27 332.05 272.54 330.54 C 273.85 329.58 273.78 328.14 274.96 327.00 C 283.39 316.74 292.84 307.59 303.05 299.12 C 305.80 298.31 307.09 294.90 309.78 293.73 C 312.73 291.11 314.99 289.35 318.54 287.54 C 319.83 285.43 321.82 285.10 323.46 283.46 C 328.67 281.10 330.93 278.43 336.05 276.18 C 339.46 274.79 342.95 272.22 346.55 271.54 C 347.57 269.68 349.54 270.27 351.05 269.20 C 352.79 268.54 354.21 267.41 356.00 266.86 C 358.23 266.63 360.31 264.47 362.55 264.54 C 363.59 262.64 366.20 263.10 368.00 261.80 C 372.34 260.79 376.95 257.56 381.55 257.54 C 382.28 256.81 383.28 256.47 384.55 256.54 C 385.33 255.85 386.33 255.52 387.56 255.54 C 388.80 254.58 390.07 254.58 391.55 254.54 C 392.95 253.23 394.41 253.93 396.00 252.85 C 398.54 252.84 400.01 251.45 402.55 251.54 C 404.52 250.15 406.58 251.19 408.45 249.46 C 410.35 249.30 412.78 249.46 414.45 248.46 C 416.62 248.22 419.58 248.64 421.46 247.46 C 425.49 247.25 430.01 247.54 433.92 246.81 L 434.38 246.00 C 434.51 239.50 434.34 232.96 434.46 226.46 C 436.22 224.16 434.35 220.39 436.30 218.00 C 438.04 214.46 441.01 213.66 444.44 212.46 Z" />
  <path
    id="path6"
    d="M 417.44 291.46 C 422.44 291.76 429.01 289.94 433.66 291.29 C 433.74 303.58 433.47 318.02 433.58 331.00 C 433.04 339.84 433.30 349.15 432.98 358.00 L 432.70 358.66 C 430.58 359.19 428.19 358.86 426.00 359.05 C 419.37 359.13 412.59 359.67 406.00 359.29 C 404.61 359.43 404.88 361.71 405.46 362.57 C 406.95 364.92 407.86 367.56 409.27 370.00 C 411.35 372.62 413.04 376.81 414.71 380.00 C 418.19 386.62 421.56 393.92 425.31 401.00 C 428.65 405.68 431.25 412.94 434.58 418.00 C 434.99 420.29 436.65 422.39 437.46 424.55 C 441.21 430.13 443.24 435.43 446.54 441.44 C 447.31 443.02 448.09 445.86 450.00 446.35 C 451.19 446.01 452.08 444.87 452.84 443.95 C 454.31 440.73 456.45 437.45 457.38 434.00 C 458.90 430.28 461.59 425.80 463.06 422.00 C 463.68 419.13 466.20 416.40 466.46 413.46 L 467.54 412.56 C 469.84 406.23 472.65 402.13 474.85 395.95 C 478.38 389.12 479.75 384.37 483.54 377.57 C 485.49 372.94 486.88 369.03 489.54 364.55 C 490.09 363.03 491.37 359.91 489.00 359.35 C 481.69 359.16 474.32 359.31 467.00 359.28 C 465.95 359.07 465.49 358.31 465.61 357.00 C 465.62 335.67 465.65 314.33 465.61 293.00 C 465.95 291.13 470.30 291.80 471.44 292.54 C 475.46 292.68 480.23 292.36 484.00 293.58 C 487.61 293.37 490.97 294.57 494.56 294.46 C 496.12 295.60 497.76 295.35 499.55 295.46 C 500.35 296.12 501.35 296.46 502.57 296.46 C 503.79 297.18 504.53 297.73 506.00 297.72 C 516.42 300.78 526.98 305.05 536.38 310.57 C 539.09 311.55 540.01 313.22 543.00 314.29 C 545.87 316.14 548.92 318.76 552.00 320.32 C 558.92 325.85 566.00 331.30 572.46 337.54 C 577.88 341.90 581.58 347.76 586.54 352.46 C 586.83 354.75 588.58 354.83 589.24 356.85 C 593.62 362.57 595.86 366.67 599.54 372.45 C 600.90 375.92 603.33 378.35 604.71 382.00 C 607.04 386.65 609.74 391.67 611.46 396.56 C 615.95 404.61 618.15 414.04 620.15 422.95 C 621.16 425.25 620.20 428.94 621.54 431.42 C 621.70 432.96 621.31 434.24 622.54 435.46 C 622.88 439.15 621.82 442.76 623.58 446.00 C 623.55 453.16 623.63 460.39 623.54 467.55 C 621.22 470.15 623.92 475.27 621.67 478.00 C 621.82 480.76 620.46 482.73 620.54 485.56 C 619.22 487.91 620.26 490.29 618.46 492.44 C 616.42 504.00 611.88 515.04 606.54 525.55 C 604.86 526.23 604.37 525.27 603.00 524.66 C 600.25 522.56 596.70 521.05 593.45 519.54 C 592.05 517.59 588.98 517.06 587.00 515.72 C 583.82 513.35 579.17 511.34 575.45 509.54 C 574.65 508.23 573.42 507.93 572.00 507.58 C 567.20 504.78 562.77 501.79 557.45 499.54 C 556.43 497.95 554.10 497.53 552.57 496.46 C 551.23 495.67 548.26 495.23 549.20 493.00 C 551.76 487.95 554.27 482.87 556.87 477.95 C 558.36 474.16 560.10 473.30 561.42 469.00 C 561.70 466.58 559.72 466.82 558.00 466.70 C 551.68 466.44 545.33 466.64 539.00 466.58 C 534.68 465.53 529.52 466.19 525.00 465.91 C 516.66 465.38 508.35 465.64 500.00 465.57 C 496.63 464.69 492.58 465.24 489.00 464.97 C 481.67 464.51 474.34 464.58 467.00 464.58 C 465.93 464.49 465.06 464.74 464.42 465.35 C 464.11 466.47 465.22 468.27 466.00 469.00 C 469.19 473.09 469.71 475.87 473.00 479.99 C 475.77 483.81 477.86 487.97 480.72 492.00 C 481.00 493.02 481.61 493.83 482.54 494.46 C 483.48 497.53 486.19 500.23 487.69 503.00 C 488.93 506.21 491.90 509.16 493.54 512.45 C 494.33 514.57 496.57 516.87 497.74 519.00 C 498.03 520.04 498.63 520.86 499.54 521.45 C 500.60 525.16 504.05 527.94 505.46 531.56 C 507.25 535.16 510.96 539.08 512.46 542.55 C 513.50 544.20 515.62 544.80 516.79 542.94 C 517.39 540.91 519.06 540.71 519.46 538.46 C 520.68 537.65 521.03 536.83 521.46 535.46 C 523.08 534.06 524.81 531.50 525.46 529.46 C 528.42 527.88 528.64 522.25 532.00 521.88 C 536.47 523.80 539.89 526.67 544.55 528.46 C 547.30 530.28 552.32 533.35 555.55 534.46 C 558.88 536.65 560.69 537.82 564.55 539.46 C 568.30 542.00 570.90 543.28 575.00 545.31 C 578.76 548.14 583.14 549.33 587.61 552.41 C 588.30 554.54 586.84 555.26 585.43 556.42 C 579.04 563.84 572.25 571.38 565.00 578.00 C 563.54 579.46 561.46 580.68 560.54 582.54 C 558.22 583.37 556.21 585.79 554.54 587.54 C 553.42 587.70 552.57 588.18 552.00 589.00 C 549.49 591.10 546.66 591.85 544.54 594.54 C 541.22 595.50 540.20 597.39 537.44 598.46 C 532.36 601.84 527.58 604.01 522.00 606.64 C 519.08 607.17 516.78 609.30 514.00 609.93 C 510.79 611.33 506.93 613.04 503.44 613.46 C 502.43 615.41 500.97 613.96 499.55 615.54 C 497.33 615.21 497.02 616.95 495.00 616.58 C 489.53 617.41 485.25 619.74 479.45 619.46 C 477.78 621.01 474.58 620.20 472.45 620.46 C 470.65 622.24 466.83 621.07 464.45 621.46 C 463.21 622.62 461.57 622.37 460.00 622.42 C 451.33 622.43 442.67 622.42 434.00 622.42 C 432.43 622.37 430.80 622.61 429.55 621.46 C 427.19 621.04 423.29 622.28 421.54 620.46 C 417.06 620.75 412.88 619.68 408.45 619.54 C 406.63 617.87 404.59 618.59 402.57 617.46 C 390.20 615.37 379.68 608.89 368.45 603.54 C 367.08 602.22 365.26 601.14 363.45 600.54 C 361.35 598.58 358.62 596.88 356.00 595.71 C 351.96 593.15 349.34 590.89 345.00 588.59 C 343.85 588.55 343.02 586.70 341.94 586.20 C 340.27 585.74 339.75 584.54 338.54 583.46 C 336.69 582.82 335.33 581.01 333.46 580.54 C 332.89 579.45 332.00 578.76 331.00 578.09 C 324.89 573.29 319.11 567.89 314.09 561.95 C 313.25 561.04 312.63 560.08 311.46 559.54 C 311.00 557.96 309.79 556.50 308.46 555.54 C 307.71 553.71 312.26 553.50 313.00 552.00 C 315.63 549.87 320.15 549.03 322.45 546.46 C 328.11 544.24 330.02 541.70 335.55 539.54 C 337.35 537.14 341.66 536.95 343.45 534.46 C 346.55 533.73 349.33 531.00 351.95 529.86 C 353.58 528.69 356.31 528.26 357.45 526.46 C 359.41 525.70 361.58 524.42 363.55 523.54 C 364.43 522.26 365.00 522.04 366.54 522.45 C 367.80 525.01 369.50 526.02 370.46 528.56 C 372.97 532.62 377.12 538.15 379.54 542.44 C 380.48 543.85 379.95 544.91 382.00 545.15 C 384.65 544.83 383.44 542.68 385.54 541.54 C 387.22 536.91 390.96 533.85 392.46 529.46 C 393.68 528.67 393.99 527.78 394.46 526.45 C 395.87 525.51 396.60 523.51 397.31 522.00 C 399.19 518.94 402.27 514.90 403.87 512.00 C 405.18 508.76 408.42 505.83 409.46 502.45 C 411.32 501.46 410.78 499.54 412.54 498.55 C 414.86 493.11 418.20 490.08 420.86 485.00 C 421.30 483.05 422.94 482.40 423.46 480.45 C 425.58 478.43 425.86 475.91 427.80 473.94 C 428.42 471.67 430.60 471.45 431.06 469.04 C 432.64 467.68 430.46 466.03 429.00 466.06 C 423.55 466.03 417.36 466.09 412.00 466.58 C 401.66 466.52 391.34 466.97 381.00 467.03 C 380.08 466.98 379.27 467.15 378.56 467.54 C 366.01 467.54 353.55 467.69 341.00 467.94 C 339.48 467.95 337.03 468.53 337.46 470.54 C 338.98 472.97 339.94 476.01 341.54 478.45 C 342.17 480.03 341.93 481.54 343.54 482.45 C 343.78 485.33 346.38 488.20 346.87 491.00 C 347.14 492.63 348.86 493.95 348.54 495.54 C 345.34 496.75 344.29 498.00 341.55 499.54 C 337.17 501.27 335.99 502.46 332.55 504.54 C 326.50 507.26 323.21 509.68 317.44 512.46 C 315.94 513.55 313.56 513.95 312.55 515.54 C 307.04 517.70 296.90 524.58 292.00 526.59 C 289.91 526.47 290.24 523.24 289.22 521.94 C 286.50 516.48 283.39 509.39 282.54 503.45 C 280.70 500.65 280.76 496.63 279.46 493.57 C 279.07 490.46 278.35 487.63 278.54 484.45 C 276.73 482.78 278.21 480.56 277.24 478.93 C 276.13 475.74 276.77 471.81 276.54 468.46 C 275.93 467.81 275.66 466.99 275.73 466.00 C 275.52 457.35 275.41 448.64 275.82 440.00 C 277.61 437.34 275.48 433.88 277.54 431.55 C 277.77 429.71 277.04 427.96 278.54 426.54 C 278.54 420.59 281.12 413.58 283.28 408.07 C 284.44 405.81 283.92 403.97 285.38 402.00 C 285.63 400.73 286.59 399.96 286.46 398.46 C 289.79 392.64 291.22 387.10 294.81 380.94 C 296.83 376.34 300.88 370.14 303.77 366.00 C 309.03 358.11 313.64 352.07 320.36 345.35 C 325.42 339.71 331.51 335.07 336.46 329.46 C 339.93 327.65 342.74 324.26 346.00 322.03 C 349.88 318.96 354.00 316.07 358.00 313.27 C 359.48 312.47 361.51 311.89 362.45 310.46 C 365.21 309.34 367.78 307.61 370.56 306.54 C 371.69 305.77 372.74 305.77 373.46 304.46 C 379.50 302.85 385.77 299.59 391.94 297.75 C 397.08 296.02 403.67 293.97 409.00 293.31 C 411.44 291.47 414.67 293.20 417.44 291.46 Z" />
  </g>
</svg>
