<?xml version="1.0" encoding="UTF-8" standalone="no"?>
<!DOCTYPE svg PUBLIC "-//W3C//DTD SVG 1.1//EN" "http://www.w3.org/Graphics/SVG/1.1/DTD/svg11.dtd">
<svg version="1.1" xmlns="http://www.w3.org/2000/svg" viewBox="0 0 3600 3270"  opacity=".8" preserveAspectRatio="xMidYMid meet">
<g id="layer101" fill="#000000" stroke="none">
 <path d="M 0.00 0.00 L 160.00 0.00 L 160.00 160.00 L 0.00 160.00 L 0.00 0.00 Z" fill="#ffffff" />
 <path d="M 64.43 22.69 C 74.72 22.71 85.02 22.68 95.31 22.59 C 96.02 25.78 96.72 28.96 97.68 32.08 C 104.15 34.99 110.27 37.49 115.60 42.37 C 120.70 47.11 125.89 52.56 128.98 58.87 C 132.38 66.48 134.36 74.60 133.65 83.00 C 133.59 85.69 132.93 88.81 133.65 91.43 C 135.41 93.80 137.82 95.73 139.94 97.77 C 134.81 106.46 129.37 114.97 124.11 123.58 C 120.91 122.43 117.45 120.72 113.98 121.22 C 110.35 123.10 107.41 126.04 103.52 127.55 C 95.84 130.70 87.35 133.01 79.00 132.80 C 66.21 132.82 53.80 127.42 43.82 119.65 C 40.61 120.61 37.44 121.71 34.26 122.76 C 29.35 114.37 24.51 105.93 19.45 97.62 C 21.72 95.32 24.38 93.31 26.46 90.84 C 26.50 84.10 25.65 77.66 27.17 70.92 C 29.81 56.57 39.91 44.54 52.15 37.08 C 55.30 34.78 59.33 33.71 62.20 31.12 C 63.77 28.81 63.78 25.40 64.43 22.69 Z" fill="#000000" />
 <path d="M 77.35 37.84 L 78.12 37.73 C 79.52 37.46 80.82 37.49 82.02 37.81 C 82.93 39.50 82.65 41.87 82.89 43.73 C 90.77 44.56 98.22 46.35 104.49 51.46 C 118.23 61.65 124.03 82.09 115.48 97.36 C 117.37 98.61 119.07 99.94 120.56 101.66 C 120.05 102.73 119.56 103.81 119.06 104.88 C 116.42 104.85 114.51 104.03 112.24 102.81 C 110.14 105.53 107.84 107.99 104.96 109.91 C 98.36 114.50 90.24 118.79 82.00 118.66 C 75.99 118.67 69.60 118.53 64.08 115.87 C 57.75 112.67 51.86 108.84 47.38 103.25 C 45.60 103.90 43.77 104.74 41.89 104.85 C 40.76 103.92 40.12 102.36 39.39 101.10 C 40.97 99.83 42.58 98.60 44.20 97.39 C 38.02 84.26 39.71 66.66 50.28 56.22 C 57.35 48.56 66.97 44.73 77.16 43.43 C 77.20 41.56 77.27 39.70 77.35 37.84 Z" fill="#ffffff" />
 <path d="M 76.74 51.63 C 76.74 55.60 76.69 59.57 76.69 63.54 C 74.93 63.57 73.17 63.61 71.41 63.66 C 74.25 69.19 77.10 74.71 80.05 80.19 C 82.81 74.77 85.31 69.22 87.74 63.65 C 86.10 63.61 84.47 63.57 82.83 63.54 C 82.84 59.74 82.84 55.95 82.83 52.15 C 97.90 52.13 110.65 66.24 110.53 81.00 C 110.67 85.37 109.25 89.17 107.94 93.24 C 104.61 91.51 101.33 89.68 98.00 87.93 C 98.73 86.18 99.45 84.44 100.15 82.68 C 94.09 82.52 88.03 82.34 81.98 82.42 C 84.91 87.19 87.99 91.88 90.89 96.67 C 91.31 96.67 91.73 96.68 92.16 96.69 C 92.91 95.48 93.68 94.27 94.44 93.07 C 97.74 94.78 100.99 96.59 104.29 98.29 C 98.05 106.44 88.25 110.96 78.00 110.47 C 69.29 110.50 60.84 104.87 55.00 98.81 C 58.31 96.91 61.64 95.04 64.96 93.17 C 65.87 93.96 67.00 97.52 68.50 96.60 C 71.60 92.10 74.43 87.34 77.19 82.62 C 71.32 82.56 65.45 82.72 59.58 82.90 C 60.27 84.61 60.97 86.31 61.68 88.02 C 58.35 89.76 55.05 91.55 51.82 93.47 C 48.75 85.83 48.05 77.31 51.72 69.73 C 55.65 61.06 64.18 53.64 73.76 52.23 C 74.76 52.02 75.75 51.82 76.74 51.63 Z" fill="#000000" />
</g>
</svg>
